<?xml version="1.0" encoding="utf-8"?>
<svg viewBox="0 0 500 500" xmlns="http://www.w3.org/2000/svg">
  <g transform="matrix(0.10000000149011612, 0, 0, -0.10000000149011612, 29.727392196655266, 368.3762512207031)" fill="#000000" stroke="none">
    <path d="M2110 2607 c0 -8 20 -28 45 -46 53 -38 200 -200 255 -281 123 -182&#10;201 -415 216 -652 4 -59 11 -105 15 -102 5 3 10 47 10 97 1 83 3 88 12 55 6&#10;-21 17 -38 25 -38 11 0 12 7 7 28 -5 15 -9 43 -10 62 -1 19 -5 49 -7 65 -3 17&#10;-3 22 -1 12 6 -23 23 -11 23 16 0 28 -31 126 -64 205 -24 57 -106 199 -91 157&#10;4 -11 20 -55 36 -98 32 -85 33 -91 20 -82 -5 3 -19 36 -32 73 -27 84 -79 192&#10;-92 192 -14 0 -137 131 -137 146 0 20 -118 141 -161 166 -22 12 -39 25 -39 30&#10;0 4 -7 8 -15 8 -8 0 -15 -6 -15 -13z m534 -732 c11 -45 -8 -18 -22 31 -7 23&#10;-12 45 -12 50 1 13 26 -46 34 -81z" style="fill: rgb(255, 255, 255);"/>
    <path d="M1394 2591 c-57 -35 -92 -99 -64 -116 6 -4 7 -13 2 -21 -8 -15 20&#10;-117 38 -139 5 -5 6 -21 3 -35 -4 -20 -23 -33 -93 -66 -86 -42 -87 -42 -93&#10;-84 -3 -23 -2 -52 3 -64 8 -20 8 -20 19 7 6 16 11 32 11 37 0 11 29 40 40 40&#10;12 0 -8 -56 -26 -71 -8 -7 -14 -30 -14 -58 0 -25 -4 -51 -8 -57 -11 -17 -63&#10;-41 -106 -50 -32 -5 -38 -4 -33 7 19 47 35 69 66 92 35 26 36 29 33 83 -4 49&#10;-5 53 -18 37 -7 -10 -14 -28 -14 -41 0 -13 -15 -35 -35 -53 -29 -26 -35 -38&#10;-35 -70 0 -22 -5 -39 -11 -39 -8 0 -10 14 -6 40 3 22 3 40 1 40 -13 0 -45 -40&#10;-39 -49 10 -17 -6 -13 -27 6 -10 9 -21 13 -25 10 -4 -4 2 -14 13 -22 18 -14&#10;17 -14 -11 -9 -16 3 -43 0 -60 -6 l-30 -12 35 -15 c19 -8 30 -17 24 -19 -8 -3&#10;-6 -21 6 -57 16 -49 19 -52 55 -55 50 -4 66 12 26 26 -17 6 -31 16 -31 21 0 6&#10;-6 11 -14 11 -41 0 -20 60 27 78 26 10 34 9 47 -4 14 -15 13 -16 -2 -11 -26 9&#10;-22 -8 5 -20 53 -24 217 30 201 67 -12 27 -17 120 -7 120 6 0 13 -26 16 -57 3&#10;-32 13 -80 22 -107 16 -46 16 -51 0 -80 -16 -29 -16 -34 -1 -70 23 -56 21 -86&#10;-6 -86 -12 0 -40 -11 -64 -25 -41 -24 -157 -56 -256 -70 -55 -7 -62 -21 -15&#10;-30 41 -8 221 30 265 56 42 24 45 24 32 -1 -6 -12 -41 -40 -78 -64 -94 -61&#10;-145 -103 -132 -111 15 -9 12 -41 -5 -55 -30 -25 -14 -30 18 -7 17 14 48 33&#10;67 43 26 13 31 19 18 22 -46 9 2 48 69 55 50 6 52 5 55 -21 l4 -27 11 25 c6&#10;14 15 45 21 70 16 67 31 102 41 96 6 -4 6 -20 1 -39 -5 -17 -14 -51 -20 -74&#10;-13 -50 -54 -103 -81 -103 -19 0 -57 -46 -46 -56 9 -9 27 6 27 22 0 10 6 13&#10;19 9 28 -9 96 71 115 136 21 69 21 125 0 137 -13 7 -14 13 -4 31 13 26 31 23&#10;45 -7 7 -17 18 -22 45 -22 36 0 124 13 173 25 24 6 29 4 42 -29 19 -45 19 -76&#10;0 -76 -28 0 -36 -35 -24 -112 17 -104 32 -111 27 -13 -3 44 -8 88 -12 98 -5&#10;10 -4 17 3 17 19 0 31 -48 31 -128 l1 -77 19 24 20 23 0 -25 c0 -24 -43 -77&#10;-63 -77 -6 0 -8 -3 -5 -6 9 -8 71 21 91 43 17 19 17 23 1 64 -9 24 -21 48 -26&#10;54 -4 5 -8 24 -8 42 l0 34 28 -15 c36 -19 49 -34 58 -70 l7 -30 -30 22 -31 22&#10;21 -55 20 -56 -24 -25 c-24 -27 -98 -64 -126 -64 -13 0 -13 2 -2 17 15 17 20&#10;17 -143 -3 -26 -4 -70 -1 -100 6 -63 16 -117 19 -124 8 -3 -4 1 -8 9 -8 8 0&#10;39 -11 69 -25 42 -20 69 -25 128 -25 45 1 85 6 100 15 25 14 28 10 228 -191&#10;111 -112 202 -208 202 -214 0 -5 -9 -10 -19 -10 -18 0 -37 -27 -27 -38 3 -2&#10;19 1 36 7 30 10 31 9 28 -16 -2 -15 -9 -29 -17 -31 -10 -3 -12 0 -8 11 5 14 2&#10;14 -28 1 -19 -8 -55 -27 -81 -44 -26 -16 -50 -28 -53 -25 -7 8 51 65 66 65 7&#10;0 13 5 13 10 0 6 -22 10 -48 10 -37 0 -54 -5 -68 -21 -17 -19 -66 -50 -79 -49&#10;-26 1 -35 -1 -35 -9 0 -14 30 -24 100 -31 36 -4 105 -13 153 -20 78 -11 90&#10;-11 104 3 21 21 8 38 -25 31 l-27 -6 25 21 c14 11 28 21 31 21 4 0 14 -20 23&#10;-45 10 -25 21 -47 26 -50 4 -3 27 2 50 10 23 8 44 15 46 15 2 0 13 -18 24 -40&#10;13 -26 19 -55 17 -87 l-2 -48 45 -3 c109 -7 206 -9 214 -4 5 2 -2 11 -15 18&#10;-29 16 -53 18 -44 4 3 -6 -1 -10 -9 -10 -19 0 -30 17 -14 23 8 3 -9 25 -43 55&#10;-30 28 -63 68 -73 91 l-19 40 26 34 26 34 -36 53 c-19 29 -46 76 -59 104 -21&#10;44 -23 46 -18 17 4 -23 3 -31 -5 -27 -6 4 -11 13 -11 21 0 7 -11 45 -24 85&#10;-20 58 -36 84 -84 134 -33 34 -76 88 -97 121 -45 69 -87 112 -132 131 -18 8&#10;-33 19 -33 24 0 6 15 3 33 -6 l32 -16 -40 41 c-21 22 -33 41 -26 41 17 0 120&#10;-72 155 -109 34 -36 46 -39 46 -12 0 35 -180 171 -226 171 -21 0 -94 69 -88&#10;84 3 7 -2 28 -11 48 -8 20 -12 44 -9 52 5 12 -1 14 -30 9 -43 -7 -128 5 -121&#10;17 3 5 20 6 39 3 43 -7 86 16 127 67 38 48 52 50 69 11 19 -46 40 -59 110 -66&#10;59 -6 67 -5 85 15 15 17 19 34 18 80 -2 50 1 60 17 65 11 4 20 11 20 16 0 5 9&#10;9 20 9 11 0 20 7 20 16 0 8 -4 12 -10 9 -21 -13 -31 7 -11 22 30 21 15 36 -16&#10;16 l-25 -17 7 32 c7 34 -7 44 -23 16 -12 -21 -32 -9 -32 19 0 22 -1 22 -19 -3&#10;-16 -20 -22 -22 -35 -11 -8 7 -20 10 -26 6 -10 -6 -14 0 -24 47 -4 15 -21 44&#10;-38 64 -33 38 -112 79 -130 68 -5 -3 -16 3 -24 15 -8 12 -19 21 -23 21 -5 0&#10;-44 -45 -87 -101 -43 -55 -80 -96 -82 -90 -4 11 27 55 105 148 39 47 42 54 32&#10;77 -19 41 -60 35 -92 -13 -30 -44 -57 -57 -87 -41 -30 16 -24 32 6 18 25 -12&#10;29 -10 59 25 20 23 35 53 39 80 5 28 10 37 15 28 15 -24 20 4 13 75 -6 63 -9&#10;69 -28 66 -12 -1 -27 5 -35 14 -13 16 -12 17 9 12 20 -6 22 -4 10 10 -30 38&#10;-57 42 -104 13z m54 -37 c15 -4 22 -14 22 -30 0 -26 -11 -30 -42 -13 -17 9&#10;-18 13 -7 20 11 7 10 9 -3 9 -10 0 -18 5 -18 10 0 11 15 12 48 4z m-38 -78 c0&#10;-5 20 -6 45 -3 42 6 45 5 45 -17 0 -13 -8 -42 -18 -64 -16 -35 -20 -38 -29&#10;-24 -10 14 -12 12 -12 -16 -1 -22 -5 -32 -13 -30 -18 6 -22 46 -6 66 12 15 11&#10;16 -5 3 -29 -23 -61 34 -33 61 12 13 11 16 -5 27 -11 6 -17 16 -14 21 7 11 45&#10;-9 45 -24z m156 -188 c-57 -82 -111 -169 -171 -277 -38 -69 -70 -120 -73 -113&#10;-2 7 17 50 42 96 47 86 57 120 32 110 -8 -3 -12 -13 -9 -25 3 -10 0 -19 -6&#10;-19 -6 0 -13 12 -17 28 -3 15 -8 33 -10 41 -3 8 1 11 10 8 12 -5 13 -1 6 17&#10;-4 12 -5 38 -1 57 7 31 8 32 18 14 6 -11 16 -44 23 -74 11 -46 14 -51 23 -35&#10;6 11 22 37 36 59 14 22 26 45 27 50 1 27 17 56 28 52 7 -3 20 3 29 14 23 26&#10;33 24 13 -3z m105 -94 c27 -9 52 -20 55 -25 3 -5 -7 -29 -22 -54 -25 -43 -27&#10;-45 -45 -29 -10 9 -21 30 -25 47 -5 26 -8 28 -16 13 -27 -48 -3 -211 27 -186&#10;10 9 9 21 -6 60 -21 55 -23 70 -11 70 5 0 16 -25 26 -56 19 -59 39 -68 43 -18&#10;3 39 31 109 49 124 20 18 18 1 -11 -64 -14 -31 -25 -58 -25 -60 0 -2 11 -1 24&#10;1 12 3 43 -2 67 -10 l44 -15 -30 -7 c-16 -4 -39 -9 -50 -11 -20 -5 -20 -5 -1&#10;10 19 15 19 16 -11 16 -17 0 -36 -7 -43 -15 -10 -12 -8 -16 14 -25 34 -13 34&#10;-43 -1 -66 -16 -9 -44 -36 -64 -58 -22 -24 -46 -41 -60 -41 -13 -1 -33 -4 -44&#10;-7 -11 -4 -41 -9 -67 -13 -34 -4 -45 -10 -42 -20 7 -18 -49 -30 -76 -15 -21&#10;11 -20 13 28 59 27 26 55 58 62 70 12 23 11 23 -40 -5 -29 -16 -64 -43 -78&#10;-62 -13 -18 -27 -31 -29 -28 -4 4 72 164 107 226 13 22 189 209 198 210 2 0&#10;26 -7 53 -16z m-363 -82 c-21 -66 -38 -92 -38 -59 0 19 31 110 43 125 19 24&#10;17 5 -5 -66z m497 -38 c20 -31 15 -39 -20 -30 -24 6 -34 33 -18 49 11 12 20 8&#10;38 -19z m-458 -6 c12 -21 11 -32 -6 -68 -20 -43 -38 -49 -47 -15 -4 17 0 38&#10;12 61 20 37 28 41 41 22z m606 -72 c22 -17 22 -31 -1 -64 -10 -15 -22 -35 -25&#10;-44 -4 -10 -11 -18 -17 -18 -19 0 -22 29 -7 68 15 38 17 45 17 62 0 13 11 12&#10;33 -4z m-73 -35 c0 -5 -7 -14 -15 -21 -21 -17 -19 -49 5 -87 23 -39 45 -42 71&#10;-10 24 29 24 10 0 -22 -25 -33 -60 -22 -94 29 -22 34 -25 45 -16 67 13 35 4&#10;40 -16 9 -13 -19 -15 -36 -10 -63 9 -51 -13 -31 -25 22 -7 33 -5 40 17 61 25&#10;23 83 34 83 15z m-300 -250 c0 -10 -168 -36 -177 -27 -12 12 5 18 74 25 98 12&#10;103 12 103 2z m-330 -187 c0 -5 -63 -34 -75 -34 -16 0 -1 20 23 28 31 12 52&#10;14 52 6z m651 -216 c19 -24 45 -59 59 -80 14 -20 47 -60 74 -88 55 -57 66 -75&#10;103 -167 14 -35 29 -63 33 -63 4 0 26 -30 50 -66 40 -63 42 -68 31 -104 -21&#10;-72 -7 -123 51 -187 30 -32 17 -43 -42 -34 -3 1 -5 13 -5 28 2 39 -21 92 -50&#10;119 -21 20 -33 23 -68 18 -41 -6 -44 -4 -70 33 -15 21 -27 51 -27 66 0 54 -47&#10;131 -139 227 l-90 95 37 5 37 5 -80 34 c-52 22 -91 46 -112 70 -18 20 -33 38&#10;-33 42 0 3 23 13 51 23 51 19 80 50 85 89 1 12 3 23 3 25 3 8 72 -53 102 -90z&#10;m73 -592 c-6 -16 -32 -25 -53 -18 -10 3 -7 9 10 18 31 17 50 17 43 0z" style="fill: rgb(255, 255, 255);"/>
    <path d="M1573 2147 c-6 -13 -14 -49 -18 -79 -8 -61 9 -109 45 -128 25 -13 25&#10;-7 3 27 -19 29 -24 123 -10 176 9 33 -6 36 -20 4z" style="fill: rgb(255, 255, 255);"/>
    <path d="M1404 1928 c-9 -18 -24 -44 -33 -58 l-16 -24 31 18 c17 10 39 26 50&#10;35 10 9 17 15 15 14 -10 -6 -29 20 -24 33 10 27 -7 14 -23 -18z" style="fill: rgb(255, 255, 255);"/>
    <path d="M1443 1808 c-32 -15 -29 -30 3 -18 14 6 40 10 59 10 19 0 37 5 40 10&#10;8 14 -74 12 -102 -2z" style="fill: rgb(255, 255, 255);"/>
    <path d="M1815 1170 c68 -33 99 -39 64 -12 -34 25 -76 42 -102 41 -15 0 -2&#10;-10 38 -29z" style="fill: rgb(255, 255, 255);"/>
    <path d="M900 2526 c-9 -12 -22 -15 -46 -10 -27 5 -37 2 -57 -20 -13 -14 -29&#10;-26 -34 -26 -6 0 -16 -7 -23 -15 -7 -8 -16 -15 -21 -15 -18 0 -8 16 26 40 35&#10;25 44 40 24 40 -18 0 -133 -95 -172 -142 -20 -24 -50 -59 -67 -78 -41 -47&#10;-118 -179 -147 -254 -14 -33 -31 -75 -39 -93 -8 -17 -14 -39 -14 -48 0 -9 -7&#10;-41 -15 -70 -9 -31 -15 -80 -13 -117 l3 -63 31 3 c20 2 36 -4 49 -18 22 -24&#10;90 -143 141 -248 34 -68 40 -74 99 -102 62 -29 93 -55 82 -66 -3 -4 -19 3 -35&#10;15 -34 24 -82 44 -82 33 0 -4 5 -25 10 -46 5 -22 6 -44 3 -49 -8 -13 -23 14&#10;-23 43 0 14 -25 75 -56 135 -30 61 -53 101 -50 90 2 -11 7 -42 11 -70 4 -27&#10;12 -53 18 -57 6 -4 23 -37 37 -74 32 -85 53 -100 84 -61 18 23 33 30 69 32 38&#10;2 47 -1 57 -20 7 -13 9 -28 6 -34 -4 -6 1 -24 10 -40 17 -28 16 -30 -14 -72&#10;-18 -27 -33 -63 -37 -93 l-7 -48 -34 5 c-19 3 -34 4 -34 3 0 -9 80 -55 83 -48&#10;3 4 8 33 12 65 5 42 14 67 34 90 35 41 56 90 42 95 -6 2 -21 12 -33 22 -28 24&#10;-7 26 28 4 17 -12 28 -14 35 -7 7 7 -8 29 -47 69 -31 33 -75 83 -99 112 -39&#10;50 -41 56 -35 98 8 53 14 61 36 43 14 -11 18 -11 29 4 8 12 15 14 20 8 3 -6&#10;15 -11 26 -11 11 0 17 5 14 10 -4 6 10 3 29 -7 46 -21 57 -10 22 22 -18 16&#10;-37 25 -53 23 -14 -2 -28 3 -30 10 -3 7 4 12 16 12 12 0 21 5 21 10 0 6 -5 10&#10;-10 10 -6 0 -10 8 -8 18 2 12 -5 18 -24 20 -16 2 -28 10 -28 17 0 26 -21 27&#10;-43 4 l-22 -24 -3 22 c-4 26 -31 38 -39 17 -3 -8 -13 -14 -22 -13 -29 4 -52&#10;-12 -46 -31 4 -13 -1 -19 -20 -24 -14 -4 -25 -13 -25 -21 0 -8 -6 -15 -14 -15&#10;-28 0 -25 16 5 34 27 16 30 22 25 50 -13 76 -18 166 -9 166 11 0 23 -68 23&#10;-126 0 -19 4 -34 9 -34 11 0 21 25 21 51 0 10 5 19 10 19 6 0 10 -11 10 -25 0&#10;-29 8 -32 25 -8 11 14 16 15 28 5 13 -11 16 -5 20 45 4 32 6 65 6 73 0 8 3 25&#10;6 38 5 13 3 22 -3 22 -6 0 -17 -19 -23 -42 -7 -24 -16 -47 -21 -52 -4 -6 -8&#10;-18 -8 -28 0 -18 -17 -23 -35 -10 -21 15 -55 97 -49 120 8 30 20 28 28 -5 5&#10;-26 43 -81 49 -72 15 24 47 103 43 106 -2 3 -15 -15 -28 -39 l-23 -43 -5 55&#10;c-4 39 -9 54 -19 52 -10 -2 -12 10 -6 60 4 35 13 78 21 96 7 18 11 38 8 46 -3&#10;7 6 27 20 44 15 16 26 35 26 40 0 21 85 82 122 88 42 7 45 11 22 29 -15 11&#10;-15 15 1 49 10 20 29 45 43 56 28 23 50 27 33 7 -6 -8 -8 -17 -4 -20 13 -14&#10;23 -6 23 17 0 35 25 52 56 37 14 -6 30 -9 34 -6 16 10 215 13 226 4 14 -11 49&#10;14 40 29 -4 7 -18 12 -30 12 -13 0 -29 7 -36 15 -11 13 -16 13 -41 -1 -27 -13&#10;-30 -13 -36 2 -4 12 -14 14 -38 10 -27 -5 -37 -2 -52 18 -25 31 -84 44 -103&#10;22z m59 -40 c32 -18 11 -30 -36 -21 -33 6 -34 7 -17 20 23 17 23 17 53 1z&#10;m-79 -25 c0 -6 -22 -22 -50 -37 -27 -15 -50 -31 -50 -36 0 -4 -4 -8 -10 -8 -6&#10;0 -6 9 0 25 5 14 6 25 2 25 -4 0 7 9 23 19 32 21 85 28 85 12z m-140 -41 c0&#10;-15 -67 -86 -75 -79 -13 13 8 60 34 74 31 17 41 18 41 5z m10 -76 c0 -17 -30&#10;-56 -85 -109 -34 -33 -69 -71 -78 -85 -12 -19 -18 -22 -25 -12 -6 9 -12 6 -22&#10;-13 -14 -26 -30 -33 -30 -14 0 6 5 19 10 29 8 16 7 18 -4 14 -16 -6 -29 -32&#10;-21 -44 3 -5 -6 -17 -20 -28 -18 -15 -30 -41 -45 -98 -11 -44 -20 -86 -20 -96&#10;0 -9 -12 -39 -27 -68 -23 -45 -25 -55 -15 -83 13 -35 10 -42 -13 -33 -25 9 -9&#10;119 35 246 22 66 115 260 128 270 4 3 24 28 45 56 43 60 63 71 88 48 19 -17&#10;49 -13 69 11 12 15 30 20 30 9z m-259 -341 c-30 -103 -42 -182 -42 -288 -1&#10;-97 -13 -133 -24 -71 -14 74 35 385 67 424 20 23 20 5 -1 -65z m19 -142 c-20&#10;-100 -30 -123 -30 -73 0 59 33 182 45 170 3 -2 -4 -46 -15 -97z m-101 -111 c1&#10;-33 -2 -41 -9 -30 -5 8 -9 38 -9 65 1 64 17 32 18 -35z m225 -167 c3 -4 14 -8&#10;23 -9 55 -8 64 -15 61 -42 -3 -24 -8 -27 -42 -29 -22 -1 -44 -7 -49 -12 -13&#10;-13 -70 44 -64 62 2 7 14 18 28 24 28 15 33 15 43 6z m-75 -82 c7 -5 11 -14 7&#10;-20 -5 -7 -1 -9 8 -5 12 4 16 0 16 -16 0 -12 5 -30 11 -41 6 -11 8 -25 6 -32&#10;-2 -7 -12 4 -22 23 -10 19 -24 39 -31 43 -8 4 -14 15 -14 24 0 11 -7 14 -27 9&#10;-27 -6 -27 -6 -9 9 22 17 35 18 55 6z m66 -141 c3 -5 4 -14 0 -20 -8 -13 -35&#10;-1 -35 16 0 16 26 19 35 4z" style="fill: rgb(255, 255, 255);"/>
    <path d="M2260 2423 c0 -6 7 -16 16 -23 21 -18 68 -100 61 -106 -3 -3 9 -29&#10;27 -57 18 -29 45 -75 60 -104 28 -56 106 -281 106 -307 0 -24 -45 -20 -64 7&#10;-15 20 -17 20 -12 2 4 -14 -3 -10 -24 15 -23 26 -33 31 -42 22 -9 -9 -7 -16 8&#10;-33 19 -21 19 -21 -2 -18 -24 4 -54 -17 -54 -37 0 -19 19 -18 26 1 8 21 47 19&#10;68 -4 26 -29 56 -126 70 -225 11 -81 13 -87 19 -54 4 20 5 48 1 62 -4 16 -2&#10;26 4 26 6 0 13 -19 15 -42 3 -37 4 -34 6 17 2 51 4 56 12 35 15 -38 -7 -120&#10;-61 -235 -6 -11 -14 -44 -20 -72 -5 -29 -18 -70 -28 -90 -11 -21 -23 -49 -27&#10;-63 -4 -14 -19 -37 -33 -52 -39 -42 -5 -34 46 11 24 21 56 57 72 80 15 24 30&#10;39 33 34 7 -12 -52 -103 -67 -103 -6 0 -3 -5 6 -11 16 -9 16 -12 3 -33 -34&#10;-52 -184 -154 -206 -140 -18 11 -1 103 26 139 l25 31 -20 39 c-18 35 -18 40&#10;-4 48 24 14 46 -15 48 -61 1 -39 1 -39 22 -23 12 9 27 32 34 51 6 19 14 42 17&#10;50 3 8 -7 -2 -21 -22 -15 -21 -31 -38 -37 -38 -14 0 27 60 64 91 l30 26 -45 0&#10;c-38 1 -48 -3 -58 -23 -10 -18 -16 -21 -26 -13 -7 6 -23 8 -34 4 -14 -4 -28&#10;-1 -40 10 -19 17 -25 15 -79 -21 -2 -2 5 -23 14 -48 9 -24 14 -49 11 -54 -3&#10;-6 0 -12 6 -15 8 -2 1 -10 -14 -17 -34 -16 -34 -19 -7 -65 l22 -37 23 29 c14&#10;17 23 22 24 14 0 -8 -9 -25 -21 -37 l-20 -21 22 -47 c13 -25 26 -46 29 -46 21&#10;0 183 109 228 153 45 44 52 57 52 90 0 50 18 81 79 142 61 59 66 49 11 -24&#10;-22 -29 -40 -60 -40 -70 0 -13 -2 -13 -9 -2 -7 11 -10 9 -15 -8 -3 -11 -9 -30&#10;-12 -42 -5 -18 -3 -20 15 -14 24 7 22 -4 -13 -65 -36 -65 -119 -135 -128 -109&#10;-3 9 -132 -51 -152 -71 -4 -5 4 -24 19 -44 l26 -35 -24 -36 c-25 -36 -26 -85&#10;-3 -85 18 0 141 123 196 195 77 101 128 195 165 301 33 91 35 106 35 221 0 92&#10;-3 123 -13 123 -7 0 -18 -9 -25 -21 -7 -12 -16 -19 -19 -16 -3 3 5 20 17 37&#10;12 17 19 34 15 38 -14 14 -65 -59 -81 -115 -20 -71 -74 -193 -85 -193 -13 0&#10;-11 6 10 48 10 20 31 78 46 127 15 50 32 96 38 103 26 32 -17 317 -75 492 -28&#10;88 -89 208 -153 305 -53 79 -115 149 -115 128z m233 -370 c25 -69 21 -76 -8&#10;-15 -28 60 -28 62 -17 62 4 0 16 -21 25 -47z m45 -298 c13 -28 16 -73 5 -62&#10;-3 4 -14 25 -24 47 -14 30 -15 40 -5 40 7 0 18 -11 24 -25z m-23 -47 c9 -25&#10;15 -52 13 -59 -4 -11 -48 96 -48 117 0 17 18 -13 35 -58z m147 -303 c-4 -25&#10;-19 -42 -28 -33 -7 8 17 68 26 63 4 -2 5 -16 2 -30z m-12 -69 c0 -13 -16 -32&#10;-42 -50 -23 -17 -39 -26 -36 -20 2 5 14 30 26 56 16 34 26 46 37 42 8 -4 15&#10;-16 15 -28z m-376 -193 c-6 -31 -4 -35 10 -30 30 12 17 -19 -23 -51 -51 -41&#10;-58 -40 -32 2 12 18 21 43 21 55 0 23 16 61 26 61 3 0 2 -16 -2 -37z m158&#10;-317 c-27 -33 -55 -62 -63 -64 -12 -2 -39 46 -39 70 0 11 71 48 90 48 10 0 21&#10;4 25 10 3 5 12 7 20 3 12 -4 4 -20 -33 -67z" style="fill: rgb(255, 255, 255);"/>
    <path d="M815 1899 c-41 -10 -74 -41 -75 -70 0 -8 11 -26 25 -39 21 -20 30&#10;-22 53 -14 22 8 27 16 26 42 -1 18 2 32 7 32 5 0 10 -4 10 -10 1 -5 2 -15 3&#10;-22 1 -10 64 -34 71 -26 2 2 -7 28 -19 58 -24 60 -34 65 -101 49z" style="fill: rgb(255, 255, 255);"/>
    <path d="M1001 1858 c-10 -17 -8 -20 23 -33 45 -19 56 -19 84 1 29 20 28 36&#10;-2 28 -13 -3 -39 1 -58 9 -32 14 -36 13 -47 -5z" style="fill: rgb(255, 255, 255);"/>
    <path d="M1670 1775 l-23 -25 25 0 c23 0 38 16 38 41 0 16 -16 10 -40 -16z" style="fill: rgb(255, 255, 255);"/>
    <path d="M1515 1648 c-33 -5 -79 -7 -101 -5 l-42 4 5 -41 c12 -113 26 -178 34&#10;-165 5 8 9 28 8 44 -2 54 0 60 13 47 23 -23 28 -12 8 21 -11 17 -20 38 -20 45&#10;0 23 17 12 30 -18 18 -43 32 -48 28 -11 -3 33 12 51 44 51 10 0 32 9 50 20 36&#10;22 33 22 -57 8z" style="fill: rgb(255, 255, 255);"/>
    <path d="M302 1458 c4 -155 7 -182 32 -258 59 -180 159 -342 293 -472 l75 -72&#10;-13 -39 c-15 -47 -82 -107 -136 -123 -44 -12 -50 -25 -23 -41 14 -10 27 -10&#10;47 -2 15 6 64 14 108 17 l80 7 1 45 c0 59 38 119 84 134 38 13 88 84 95 136 2&#10;17 13 47 24 65 27 46 188 231 275 317 38 37 66 68 63 68 -4 0 -248 -155 -275&#10;-175 -1 -1 0 -9 4 -18 5 -15 9 -15 32 3 14 11 27 18 30 15 9 -8 -30 -45 -48&#10;-45 -9 0 -17 -6 -17 -13 0 -6 -25 -51 -56 -98 -31 -47 -57 -92 -57 -100 0 -8&#10;-11 -37 -24 -66 -20 -42 -32 -55 -68 -71 -29 -13 -49 -30 -63 -55 -11 -21 -23&#10;-37 -26 -37 -4 0 -10 -16 -13 -35 -8 -39 -17 -48 -40 -39 -14 6 -13 10 8 38&#10;13 18 29 51 36 74 10 39 9 45 -15 76 l-25 33 25 37 c14 20 25 41 25 46 0 6 4&#10;10 9 10 14 0 51 87 51 119 0 33 19 81 32 81 4 0 8 8 8 18 0 9 25 46 56 81 30&#10;35 62 81 71 102 8 22 18 39 22 39 3 0 27 17 53 38 25 20 63 50 83 65 20 16 34&#10;31 32 34 -7 7 -107 -46 -149 -79 -20 -16 -51 -52 -69 -81 -17 -29 -47 -69 -65&#10;-89 -18 -21 -41 -54 -49 -75 -9 -21 -25 -47 -35 -58 -22 -23 -54 -95 -46 -102&#10;3 -3 11 6 17 21 7 14 16 26 21 26 18 0 16 -3 -88 -172 -28 -46 -44 -60 -44&#10;-37 0 6 14 30 30 54 l31 44 -41 21 c-42 21 -49 18 -25 -14 12 -16 12 -22 -1&#10;-47 l-15 -29 -28 32 c-15 18 -38 45 -50 59 -71 83 -151 245 -188 379 -23 87&#10;-33 270 -14 270 11 0 56 -93 66 -135 7 -31 31 -65 47 -65 4 0 7 12 7 28 -1 16&#10;-3 20 -6 10 -7 -26 -23 -22 -23 5 0 38 -22 137 -29 132 -4 -2 -12 15 -18 38&#10;-15 53 -48 97 -75 97 -19 0 -20 -5 -16 -172z" style="fill: rgb(255, 255, 255);"/>
    <path d="M1351 1485 c-15 -44 -85 -123 -118 -136 -13 -5 -23 -13 -23 -19 0&#10;-16 40 -12 46 5 4 8 10 15 16 15 5 0 26 16 46 35 20 19 45 35 55 35 12 0 16 4&#10;10 13 -4 6 -10 30 -13 51 l-5 39 -14 -38z" style="fill: rgb(255, 255, 255);"/>
    <path d="M444 1443 c5 -31 12 -51 14 -44 6 18 -8 101 -17 101 -4 0 -3 -25 3&#10;-57z" style="fill: rgb(255, 255, 255);"/>
    <path d="M710 1400 c0 -5 -7 -10 -15 -10 -18 0 -19 -12 -4 -27 6 -6 16 -22 23&#10;-34 6 -12 29 -32 51 -43 29 -16 41 -28 43 -48 4 -30 32 -62 32 -35 0 19 47 50&#10;65 43 8 -3 23 7 35 24 19 26 19 30 5 30 -11 0 -15 5 -11 16 3 8 -1 29 -9 45&#10;-12 22 -22 29 -43 28 -15 -1 -39 2 -54 6 -23 6 -28 4 -28 -11 0 -9 7 -26 17&#10;-36 14 -16 15 -18 0 -18 -9 0 -19 5 -22 11 -4 5 -18 15 -32 20 -14 5 -27 18&#10;-30 29 -5 20 -23 28 -23 10z m180 -87 c0 -7 -13 -11 -30 -11 -36 1 -38 10 -7&#10;31 22 15 36 7 37 -20z" style="fill: rgb(255, 255, 255);"/>
    <path d="M1230 1258 c0 -7 -38 -37 -84 -66 -94 -59 -136 -95 -136 -114 0 -9 2&#10;-10 8 -2 4 7 68 49 142 94 74 45 139 86 145 91 5 5 -7 9 -33 9 -27 0 -42 -5&#10;-42 -12z" style="fill: rgb(255, 255, 255);"/>
    <path d="M1017 891 c-31 -42 -65 -127 -55 -136 2 -2 21 -10 42 -19 37 -15 46&#10;-15 148 5 59 12 108 26 108 31 0 4 -14 17 -32 28 -24 14 -34 16 -40 7 -4 -7&#10;-13 2 -23 26 -18 43 -77 107 -99 107 -8 0 -30 -22 -49 -49z m67 -72 c20 -23&#10;35 -47 33 -53 -4 -11 -60 44 -78 77 -17 31 7 18 45 -24z m-34 -49 c0 -12 -20&#10;-13 -39 -1 -9 6 -11 18 -6 41 l7 32 19 -31 c10 -17 19 -36 19 -41z" style="fill: rgb(255, 255, 255);"/>
    <path d="M1305 730 c-3 -5 -41 -11 -83 -11 -89 -2 -137 -10 -136 -24 0 -11 16&#10;-16 124 -40 41 -9 82 -19 90 -22 8 -2 4 5 -10 16 -14 11 -21 23 -17 28 5 4 41&#10;9 81 11 57 3 82 0 117 -16 24 -11 71 -23 104 -26 76 -9 122 -23 129 -41 4 -11&#10;-21 -13 -137 -13 -101 0 -158 -5 -197 -16 -136 -40 -198 -42 -320 -10 -30 8&#10;-77 14 -105 14 -96 0 -122 20 -61 45 19 8 43 26 54 40 11 14 22 25 24 25 3 0&#10;18 -11 34 -25 56 -48 92 -59 204 -61 102 -2 104 -1 70 13 -19 9 -61 17 -93 19&#10;-65 5 -158 37 -178 60 -12 15 -10 15 24 0 51 -21 47 -9 -5 14 -60 27 -71 25&#10;-93 -17 -13 -24 -34 -42 -61 -54 -22 -10 -48 -27 -57 -37 -16 -18 -16 -20 3&#10;-37 17 -16 36 -18 140 -16 77 1 120 -1 120 -8 0 -6 -40 -12 -97 -14 -54 -1 12&#10;-4 146 -5 203 -2 242 0 232 11 -9 12 11 15 117 20 70 4 159 6 197 6 59 -1 65&#10;-3 35 -10 -19 -4 84 -5 230 -2 146 3 268 7 272 9 27 17 -46 54 -105 54 -14 0&#10;-28 4 -31 9 -3 5 -19 11 -35 13 -21 3 -28 1 -24 -9 7 -17 9 -17 -99 11 -178&#10;45 -199 43 -76 -8 37 -16 66 -32 63 -36 -5 -9 -176 50 -199 69 -9 7 -36 16&#10;-61 19 -25 2 -45 9 -45 13 0 5 -11 9 -25 9 -14 0 -25 -5 -25 -11 0 -6 -15 -1&#10;-33 10 -18 11 -53 23 -77 26 -25 3 -62 8 -82 10 -20 3 -40 1 -43 -5z" style="fill: rgb(255, 255, 255);"/>
    <path d="M1380 510 c-106 -6 -100 -6 78 -8 128 -1 192 -6 192 -13 0 -7 -65 -9&#10;-212 -5 -374 10 -580 13 -466 7 129 -7 154 -21 37 -21 -91 0 -419 -27 -427&#10;-35 -3 -3 58 -5 136 -5 88 0 142 -4 142 -10 0 -6 -53 -10 -137 -10 -136 0&#10;-179 -8 -158 -29 7 -7 38 -7 95 -1 103 13 294 30 333 30 16 0 26 4 22 10 -7&#10;12 -14 11 145 10 69 0 140 4 159 9 19 6 122 15 230 22 108 6 201 14 206 17 6&#10;4 84 5 175 2 91 -3 190 -2 220 1 49 5 45 6 -40 9 -89 3 -92 4 -35 9 l60 6 -94&#10;8 c-104 8 -482 6 -661 -3z" style="fill: rgb(255, 255, 255);"/>
    <path d="M2120 461 c0 -7 29 -11 75 -11 48 0 75 -4 75 -11 0 -7 -9 -9 -24 -5&#10;-16 4 -26 1 -30 -9 -3 -8 -13 -14 -23 -13 -51 4 -133 -3 -133 -12 0 -6 39 -10&#10;96 -10 64 0 93 -3 89 -11 -4 -6 -48 -10 -113 -9 -211 2 -272 0 -272 -10 0 -6&#10;35 -11 83 -12 61 -1 68 -3 30 -5 -56 -4 -74 -23 -23 -23 17 0 30 -5 30 -11 0&#10;-13 117 -7 210 11 30 6 85 13 123 17 48 4 67 9 67 19 0 11 -11 14 -46 11 -25&#10;-2 -47 0 -50 5 -3 4 21 8 53 9 32 0 69 2 83 3 14 1 46 3 73 4 26 1 47 7 47 12&#10;0 6 -43 10 -110 10 -67 0 -110 4 -110 10 0 6 50 10 131 10 100 0 130 3 127 13&#10;-4 9 -50 12 -184 13 -98 1 -200 4 -227 8 -31 5 -47 4 -47 -3z" style="fill: rgb(255, 255, 255);"/>
    <path d="M704 369 c-3 -6 -17 -9 -32 -7 -14 2 -27 -3 -29 -9 -4 -10 14 -13 64&#10;-15 l68 -1 -55 -6 -55 -7 75 -8 c41 -4 136 -6 210 -4 113 3 135 6 138 19 3 19&#10;-49 27 -233 35 -66 3 -125 7 -132 9 -7 2 -15 0 -19 -6z" style="fill: rgb(255, 255, 255);"/>
  </g>
</svg>